<?xml version="1.0" encoding="UTF-8" standalone="no"?>
<svg
   xmlns:dc="http://purl.org/dc/elements/1.1/"
   xmlns:cc="http://creativecommons.org/ns#"
   xmlns:rdf="http://www.w3.org/1999/02/22-rdf-syntax-ns#"
   xmlns:svg="http://www.w3.org/2000/svg"
   xmlns="http://www.w3.org/2000/svg"
   xmlns:xlink="http://www.w3.org/1999/xlink"
   version="1.1"
   width="16"
   height="16"
   id="svg3935">
  <defs
     id="defs3937">
    <linearGradient
       id="linearGradient895">
      <stop
         style="stop-color:#273445;stop-opacity:1"
         offset="0"
         id="stop891" />
      <stop
         style="stop-color:#485a6c;stop-opacity:1"
         offset="1"
         id="stop893" />
    </linearGradient>
    <linearGradient
       id="linearGradient853">
      <stop
         style="stop-color:#273445;stop-opacity:1"
         offset="0"
         id="stop849" />
      <stop
         style="stop-color:#0e141f;stop-opacity:1"
         offset="1"
         id="stop851" />
    </linearGradient>
    <linearGradient
       x1="74.060455"
       y1="16.560879"
       x2="74.060455"
       y2="42.941589"
       id="linearGradient3097"
       xlink:href="#linearGradient4806-9"
       gradientUnits="userSpaceOnUse"
       gradientTransform="matrix(0.53069046,0,0,0.53069075,-31.303176,-7.7887052)" />
    <linearGradient
       id="linearGradient4806-9">
      <stop
         id="stop4808-49"
         style="stop-color:#ffffff;stop-opacity:1"
         offset="0" />
      <stop
         id="stop4810-05"
         style="stop-color:#ffffff;stop-opacity:0.23529412"
         offset="0.42447853" />
      <stop
         id="stop4812-6"
         style="stop-color:#ffffff;stop-opacity:0.15686275"
         offset="0.82089913" />
      <stop
         id="stop4814-7"
         style="stop-color:#ffffff;stop-opacity:0.39215687"
         offset="1" />
    </linearGradient>
    <linearGradient
       xlink:href="#linearGradient853"
       id="linearGradient855"
       x1="8"
       y1="0.5"
       x2="8"
       y2="15.5"
       gradientUnits="userSpaceOnUse" />
    <radialGradient
       xlink:href="#linearGradient900"
       id="radialGradient902"
       cx="32.000004"
       cy="8.0000019"
       fx="32.000004"
       fy="8.0000019"
       r="29.5"
       gradientTransform="matrix(0,0.46538351,-0.46538347,0,11.72307,-12.993967)"
       gradientUnits="userSpaceOnUse" />
    <linearGradient
       id="linearGradient900">
      <stop
         style="stop-color:#ffffff;stop-opacity:1;"
         offset="0"
         id="stop896" />
      <stop
         id="stop906"
         offset="0.25"
         style="stop-color:#ffffff;stop-opacity:0" />
      <stop
         id="stop904"
         offset="0.4685185"
         style="stop-color:#ffffff;stop-opacity:0" />
      <stop
         style="stop-color:#ffffff;stop-opacity:0.3"
         offset="0.79629624"
         id="stop978" />
      <stop
         style="stop-color:#ffffff;stop-opacity:0"
         offset="1"
         id="stop898" />
    </linearGradient>
    <linearGradient
       xlink:href="#linearGradient895"
       id="linearGradient897"
       x1="8"
       y1="5"
       x2="8"
       y2="11"
       gradientUnits="userSpaceOnUse" />
    <radialGradient
       xlink:href="#linearGradient962"
       id="radialGradient964"
       cx="79.511528"
       cy="28.346268"
       fx="79.511528"
       fy="28.346268"
       r="16"
       gradientUnits="userSpaceOnUse"
       gradientTransform="matrix(0,-0.49999987,0.31249997,0,-0.85820881,51.755752)" />
    <linearGradient
       id="linearGradient962">
      <stop
         id="stop958"
         offset="0"
         style="stop-color:#ffffff;stop-opacity:1" />
      <stop
         style="stop-color:#ffffff;stop-opacity:1"
         offset="0.80645162"
         id="stop966" />
      <stop
         id="stop960"
         offset="1"
         style="stop-color:#d4d4d4;stop-opacity:1" />
    </linearGradient>
  </defs>
  <metadata
     id="metadata3940">
    <rdf:RDF>
      <cc:Work
         rdf:about="">
        <dc:format>image/svg+xml</dc:format>
        <dc:type
           rdf:resource="http://purl.org/dc/dcmitype/StillImage" />
        <dc:title />
      </cc:Work>
    </rdf:RDF>
  </metadata>
  <path
     d="M 8,0.49999996 C 3.861757,0.49999996 0.49999998,3.8617571 0.49999998,8 0.49999998,12.138243 3.861757,15.5 8,15.5 12.138243,15.5 15.500007,12.138243 15.5,8 15.5,3.8617571 12.138243,0.49999996 8,0.49999996 Z"
     id="path2555-7-8-5-0-9-2"
     style="color:#000000;clip-rule:nonzero;display:inline;overflow:visible;visibility:visible;opacity:1;isolation:auto;mix-blend-mode:normal;color-interpolation:sRGB;color-interpolation-filters:linearRGB;solid-color:#000000;solid-opacity:1;fill:url(#linearGradient855);fill-opacity:1;fill-rule:nonzero;stroke:none;stroke-width:1;stroke-linecap:butt;stroke-linejoin:miter;stroke-miterlimit:4;stroke-dasharray:none;stroke-dashoffset:0;stroke-opacity:1;marker:none;color-rendering:auto;image-rendering:auto;shape-rendering:auto;text-rendering:auto;enable-background:accumulate" />
  <path
     d="m 8.0000006,0.50000004 c -4.1382411,0 -7.50000065,3.36175846 -7.50000065,7.50000016 0,4.1382408 3.36175955,7.5000018 7.50000065,7.5000018 4.1382404,0 7.5000034,-3.361761 7.5000014,-7.5000018 0,-4.1382417 -3.361761,-7.50000016 -7.5000014,-7.50000016 z"
     id="path878"
     style="color:#000000;display:inline;overflow:visible;visibility:visible;opacity:0.3;fill:url(#radialGradient902);fill-opacity:1;fill-rule:nonzero;stroke:none;stroke-width:1;marker:none;enable-background:accumulate" />
  <path
     style="color:#000000;clip-rule:nonzero;display:inline;overflow:visible;visibility:visible;opacity:0.7;isolation:auto;mix-blend-mode:normal;color-interpolation:sRGB;color-interpolation-filters:linearRGB;solid-color:#000000;solid-opacity:1;fill:none;fill-opacity:1;fill-rule:nonzero;stroke:#0e141f;stroke-width:0.99999988;stroke-linecap:round;stroke-linejoin:round;stroke-miterlimit:4;stroke-dasharray:none;stroke-dashoffset:0;stroke-opacity:1;marker:none;color-rendering:auto;image-rendering:auto;shape-rendering:auto;text-rendering:auto;enable-background:accumulate"
     id="path2555-7"
     d="m 8.000001,0.49999994 c -4.138241,0 -7.50000103,3.36175856 -7.50000103,7.49999996 C 0.49999997,12.138242 3.86176,15.500001 8.000001,15.5 12.13824,15.5 15.500004,12.138242 15.5,7.9999999 15.5,3.8617585 12.13824,0.49999994 8.000001,0.49999994 Z" />
  <path
     style="color:#000000;clip-rule:nonzero;display:inline;overflow:visible;visibility:visible;opacity:0.3;isolation:auto;mix-blend-mode:normal;color-interpolation:sRGB;color-interpolation-filters:linearRGB;solid-color:#000000;solid-opacity:1;fill:none;fill-opacity:1;fill-rule:nonzero;stroke:url(#linearGradient3097);stroke-width:0.99999994;stroke-linecap:round;stroke-linejoin:round;stroke-miterlimit:4;stroke-dasharray:none;stroke-dashoffset:0;stroke-opacity:1;marker:none;color-rendering:auto;image-rendering:auto;shape-rendering:auto;text-rendering:auto;enable-background:accumulate"
     id="path8655-6"
     d="M 14.5,7.999769 C 14.5,11.589737 11.589636,14.5 8.0000824,14.5 4.4101993,14.5 1.5,11.589703 1.5,7.999769 1.5,4.4099697 4.4101993,1.5000003 8.0000824,1.5000003 11.589636,1.5000003 14.5,4.4099697 14.5,7.999769 Z" />
  <circle
     style="opacity:1;fill:url(#radialGradient964);fill-opacity:1;stroke:none;stroke-width:5.92592621;stroke-linecap:butt;stroke-miterlimit:4;stroke-dasharray:none;stroke-opacity:1;paint-order:normal;font-variant-east_asian:normal;vector-effect:none;stroke-linejoin:miter;stroke-dashoffset:0"
     id="path858"
     cx="8.000001"
     cy="7.9999995"
     r="4" />
  <g
     aria-label="8"
     style="font-style:normal;font-weight:normal;font-size:40px;line-height:1.25;font-family:sans-serif;letter-spacing:0px;word-spacing:0px;fill:#273445;fill-opacity:1;stroke:none"
     id="text862"
     transform="scale(0.25)" />
  <circle
     r="4.4999995"
     cy="7.9999995"
     cx="8.000001"
     id="circle847"
     style="opacity:0.7;fill:none;fill-opacity:1;stroke:#0e141f;stroke-width:1;stroke-linecap:butt;stroke-miterlimit:4;stroke-dasharray:none;stroke-opacity:1;paint-order:normal" />
  <path
     id="path887"
     style="font-style:normal;font-variant:normal;font-weight:normal;font-stretch:normal;font-size:8.53485107px;line-height:1.25;font-family:'Lexend Deca';-inkscape-font-specification:'Lexend Deca';letter-spacing:0px;word-spacing:0px;fill:url(#linearGradient897);fill-opacity:1;stroke:none;stroke-width:0.99999994"
     d="m 10.018493,9.2674246 q 0,0.4779516 -0.2731151,0.8705544 -0.2645804,0.392604 -0.7254624,0.631579 -0.4523471,0.230441 -1.0241821,0.230441 -0.5633002,0 -1.0241821,-0.230441 Q 6.5192042,10.530583 6.2460889,10.137979 5.9815086,9.7453762 5.9815086,9.2674246 q 0,-0.5633002 0.28165,-0.9132291 Q 6.5533436,7.9957318 6.9203422,7.7994302 6.6045527,7.6458029 6.3655769,7.3556179 6.126601,7.065433 6.126601,6.6301556 q 0,-0.4438123 0.2475107,-0.8108109 Q 6.6216224,5.4438113 7.0483649,5.2219052 7.4751075,4.999999 7.9957334,4.999999 q 0.5291608,0 0.9473685,0.2219062 0.4267425,0.2219061 0.6742532,0.5974395 0.2475107,0.3669986 0.2475107,0.8108109 0,0.3157895 -0.1280228,0.5462305 Q 9.6173551,7.3982922 9.4295884,7.5519195 9.2418217,7.7055468 9.0455201,7.7994302 9.4807975,8.0298712 9.7453779,8.4224743 10.018493,8.8150775 10.018493,9.2674246 Z M 7.0398301,6.6557602 q 0,0.341394 0.2816501,0.5633001 0.2816501,0.2219062 0.6742532,0.2219062 0.401138,0 0.6742532,-0.2219062 0.2816501,-0.2219061 0.2816501,-0.5633001 0,-0.3328592 -0.2731152,-0.5633002 -0.2645804,-0.2389758 -0.6827881,-0.2389758 -0.4182077,0 -0.6913229,0.2389758 -0.2645804,0.230441 -0.2645804,0.5633002 z m 0.9559033,3.4907538 q 0.4779517,0 0.7937412,-0.2645801 0.3157895,-0.2645804 0.3157895,-0.6486487 0,-0.4352774 -0.3243244,-0.6998578 -0.3243243,-0.2731152 -0.7852063,-0.2731152 -0.4523471,0 -0.7766714,0.2731152 -0.3243244,0.2645804 -0.3243244,0.6998578 0,0.3840683 0.3157895,0.6486487 0.3157895,0.2645801 0.7852063,0.2645801 z" />
  <path
     style="font-style:normal;font-variant:normal;font-weight:normal;font-stretch:normal;font-size:8.53485107px;line-height:1.25;font-family:'Lexend Deca';-inkscape-font-specification:'Lexend Deca';letter-spacing:0px;word-spacing:0px;fill:#0e141f;fill-opacity:1;stroke:none;stroke-width:0.99999994"
     d="M 7.9960938 5 C 7.6490098 5 7.3333232 5.0747188 7.0488281 5.2226562 C 6.7643331 5.3705936 6.5400071 5.5699569 6.375 5.8203125 C 6.2099929 6.0649782 6.1269531 6.3349845 6.1269531 6.6308594 C 6.1269531 6.8140918 6.1689008 6.9705683 6.2324219 7.1152344 C 6.2714315 7.0138934 6.3117313 6.9141247 6.375 6.8203125 C 6.5400071 6.5699569 6.7643331 6.3705936 7.0488281 6.2226562 C 7.1175786 6.186906 7.1932194 6.1677359 7.265625 6.140625 C 7.2809908 6.1251794 7.2876823 6.1066079 7.3046875 6.0917969 C 7.4867643 5.9324797 7.7172886 5.8535156 7.9960938 5.8535156 C 8.2748989 5.8535156 8.5013474 5.9324797 8.6777344 6.0917969 C 8.6935707 6.1051587 8.6984317 6.1228404 8.7128906 6.1367188 C 8.7898739 6.1650682 8.8713152 6.1844287 8.9433594 6.2226562 C 9.2278544 6.3705936 9.4521804 6.5699569 9.6171875 6.8203125 C 9.6804562 6.9141247 9.720756 7.0138934 9.7597656 7.1152344 C 9.8257928 6.9740828 9.8652344 6.816029 9.8652344 6.6308594 C 9.8652344 6.3349845 9.7821946 6.0649782 9.6171875 5.8203125 C 9.4521804 5.5699569 9.2278544 5.3705936 8.9433594 5.2226562 C 8.6645542 5.0747188 8.3488676 5 7.9960938 5 z M 7.2617188 7.1464844 C 7.121134 7.290174 7.0390625 7.4581405 7.0390625 7.65625 C 7.0390625 7.883846 7.1344989 8.0708126 7.3222656 8.21875 C 7.391801 8.2735354 7.4711016 8.3073 7.5507812 8.3417969 C 7.6876848 8.2896863 7.8347633 8.2597656 7.9960938 8.2597656 C 8.159795 8.2597656 8.3074536 8.2901123 8.4453125 8.3417969 C 8.5241316 8.3073494 8.6027269 8.2733459 8.6699219 8.21875 C 8.8576886 8.0708126 8.9511719 7.883846 8.9511719 7.65625 C 8.9511719 7.460663 8.8680102 7.2948878 8.7265625 7.1523438 C 8.704938 7.1733953 8.6948579 7.1991034 8.6699219 7.21875 C 8.4878451 7.3666875 8.2635191 7.4414062 7.9960938 7.4414062 C 7.7343583 7.4414063 7.5100324 7.3666875 7.3222656 7.21875 C 7.2954324 7.1976087 7.2847173 7.1692525 7.2617188 7.1464844 z M 6.328125 8.2871094 C 6.3073106 8.310943 6.283925 8.3284971 6.2636719 8.3535156 C 6.0759052 8.5868016 5.9824219 8.8920447 5.9824219 9.2675781 C 5.9824219 9.4359798 6.0093248 9.5955385 6.0585938 9.7480469 C 6.1055062 9.6005009 6.172129 9.4672507 6.2636719 9.3535156 C 6.4571285 9.1145398 6.6752561 8.9296959 6.9199219 8.7988281 C 6.7093955 8.6964099 6.5245516 8.5489254 6.3652344 8.3554688 C 6.3485962 8.3352652 6.3430256 8.3083678 6.328125 8.2871094 z M 9.6367188 8.296875 C 9.5728156 8.387128 9.5144734 8.4833641 9.4296875 8.5527344 C 9.3045097 8.6551526 9.1757896 8.7362392 9.0449219 8.7988281 C 9.3351068 8.9524555 9.5697068 9.1601396 9.7460938 9.421875 C 9.8254698 9.5359782 9.8810091 9.6556709 9.9257812 9.7773438 C 9.9835615 9.6159039 10.017578 9.4470743 10.017578 9.2675781 C 10.017578 8.9660134 9.9281705 8.6836105 9.7460938 8.421875 C 9.7147793 8.3754083 9.6716199 8.3399343 9.6367188 8.296875 z M 7.0761719 9.7148438 C 6.9688526 9.8628016 6.8945312 10.02798 6.8945312 10.232422 C 6.8945312 10.471522 6.9961053 10.674113 7.1796875 10.84375 C 7.43269 10.938674 7.7009026 11 7.9960938 11 C 8.2994713 11 8.5693357 10.937136 8.8222656 10.839844 C 9.0036335 10.670816 9.1054688 10.470075 9.1054688 10.232422 C 9.1054688 10.02798 9.0311474 9.8628016 8.9238281 9.7148438 C 8.8809365 9.7715637 8.849043 9.8325586 8.7890625 9.8828125 C 8.5785362 10.059199 8.3147282 10.146484 7.9960938 10.146484 C 7.6831492 10.146484 7.4214638 10.059199 7.2109375 9.8828125 C 7.150957 9.8325586 7.1190635 9.7715637 7.0761719 9.7148438 z "
     id="path899" />
</svg>
