<?xml version="1.0" encoding="UTF-8" standalone="no"?>
<svg
   xmlns:dc="http://purl.org/dc/elements/1.1/"
   xmlns:cc="http://creativecommons.org/ns#"
   xmlns:rdf="http://www.w3.org/1999/02/22-rdf-syntax-ns#"
   xmlns:svg="http://www.w3.org/2000/svg"
   xmlns="http://www.w3.org/2000/svg"
   xmlns:xlink="http://www.w3.org/1999/xlink"
   id="svg4505"
   height="24"
   width="24"
   version="1.1">
  <defs
     id="defs4507">
    <linearGradient
       id="linearGradient927">
      <stop
         id="stop923"
         offset="0"
         style="stop-color:#1a1a1a;stop-opacity:1" />
      <stop
         id="stop925"
         offset="1"
         style="stop-color:#333333;stop-opacity:1" />
    </linearGradient>
    <linearGradient
       id="linearGradient869">
      <stop
         id="stop865"
         offset="0"
         style="stop-color:#1a1a1a;stop-opacity:1" />
      <stop
         id="stop867"
         offset="1"
         style="stop-color:#000000;stop-opacity:1" />
    </linearGradient>
    <linearGradient
       id="linearGradient3820-7-2-2">
      <stop
         offset="0"
         style="stop-color:#3d3d3d;stop-opacity:1"
         id="stop3822-2-6-36" />
      <stop
         offset="0.5"
         style="stop-color:#686868;stop-opacity:0.49803922"
         id="stop3864-8-7-6" />
      <stop
         offset="1"
         style="stop-color:#686868;stop-opacity:0"
         id="stop3824-1-2-4" />
    </linearGradient>
    <linearGradient
       x1="71.204407"
       y1="15.369057"
       x2="71.204407"
       y2="40.495617"
       id="linearGradient3097"
       xlink:href="#linearGradient4806-9"
       gradientUnits="userSpaceOnUse"
       gradientTransform="matrix(0.77562456,0,0,0.77562491,-43.981566,-9.614261)" />
    <linearGradient
       id="linearGradient4806-9">
      <stop
         id="stop4808-49"
         style="stop-color:#ffffff;stop-opacity:1"
         offset="0" />
      <stop
         id="stop4810-05"
         style="stop-color:#ffffff;stop-opacity:0.23529412"
         offset="0.42447853" />
      <stop
         id="stop4812-6"
         style="stop-color:#ffffff;stop-opacity:0.15686275"
         offset="0.82089913" />
      <stop
         id="stop4814-7"
         style="stop-color:#ffffff;stop-opacity:0.39215687"
         offset="1" />
    </linearGradient>
    <radialGradient
       cx="99.157013"
       cy="186.17059"
       r="62.769119"
       fx="99.157013"
       fy="186.17059"
       id="radialGradient3108"
       xlink:href="#linearGradient3820-7-2-2"
       gradientUnits="userSpaceOnUse"
       gradientTransform="matrix(0.11151981,0,0,0.03548359,0.94202897,15.166729)" />
    <linearGradient
       gradientUnits="userSpaceOnUse"
       y2="22.5"
       x2="12"
       y1="1.5"
       x1="12"
       id="linearGradient871"
       xlink:href="#linearGradient869" />
    <radialGradient
       gradientUnits="userSpaceOnUse"
       gradientTransform="matrix(0,0.62621222,-0.62621217,0,14.81129,-18.449588)"
       r="29.5"
       fy="4.4893565"
       fx="34.719734"
       cy="4.4893565"
       cx="34.719734"
       id="radialGradient902"
       xlink:href="#linearGradient900" />
    <linearGradient
       id="linearGradient900">
      <stop
         id="stop896"
         offset="0"
         style="stop-color:#ffffff;stop-opacity:1;" />
      <stop
         style="stop-color:#ffffff;stop-opacity:0"
         offset="0.25"
         id="stop906" />
      <stop
         style="stop-color:#ffffff;stop-opacity:0"
         offset="0.4685185"
         id="stop904" />
      <stop
         id="stop978"
         offset="0.79629624"
         style="stop-color:#ffffff;stop-opacity:0.3" />
      <stop
         id="stop898"
         offset="1"
         style="stop-color:#ffffff;stop-opacity:0" />
    </linearGradient>
    <radialGradient
       r="16"
       fy="84.132057"
       fx="61.937202"
       cy="84.132057"
       cx="61.937202"
       gradientTransform="matrix(-8.172731e-8,-1.9999999,1.4166669,-5.789019e-8,-87.187087,171.87986)"
       gradientUnits="userSpaceOnUse"
       id="radialGradient1043"
       xlink:href="#linearGradient962" />
    <linearGradient
       id="linearGradient962">
      <stop
         style="stop-color:#ffffff;stop-opacity:1"
         offset="0"
         id="stop958" />
      <stop
         id="stop966"
         offset="0.80645162"
         style="stop-color:#ffffff;stop-opacity:1" />
      <stop
         style="stop-color:#d4d4d4;stop-opacity:1"
         offset="1"
         id="stop960" />
    </linearGradient>
    <linearGradient
       gradientUnits="userSpaceOnUse"
       y2="17"
       x2="12"
       y1="7"
       x1="12"
       id="linearGradient929"
       xlink:href="#linearGradient927" />
  </defs>
  <metadata
     id="metadata4510">
    <rdf:RDF>
      <cc:Work
         rdf:about="">
        <dc:format>image/svg+xml</dc:format>
        <dc:type
           rdf:resource="http://purl.org/dc/dcmitype/StillImage" />
        <dc:title />
      </cc:Work>
    </rdf:RDF>
  </metadata>
  <path
     d="m 19,21.772727 a 7,2.2272727 0 0 1 -14,0 7,2.2272727 0 1 1 14,0 z"
     id="path3818-0-2-5"
     style="fill:url(#radialGradient3108);fill-opacity:1;stroke:none" />
  <path
     style="color:#000000;display:inline;overflow:visible;visibility:visible;fill:url(#linearGradient871);fill-opacity:1;fill-rule:nonzero;stroke:none;stroke-width:1;marker:none;enable-background:accumulate"
     id="path2555-72"
     d="M 12.000001,1.4979502 C 6.206464,1.4979502 1.5,6.204412 1.5,11.99795 c 0,5.793538 4.706464,10.500002 10.500001,10.500001 5.793536,0 10.500005,-4.706463 10.499999,-10.500001 C 22.5,6.204412 17.793537,1.4979502 12.000001,1.4979502 Z" />
  <path
     style="color:#000000;display:inline;overflow:visible;visibility:visible;opacity:0.3;vector-effect:none;fill:url(#radialGradient902);fill-opacity:1;fill-rule:nonzero;stroke:none;stroke-width:1.00000012;stroke-linecap:butt;stroke-linejoin:miter;stroke-miterlimit:4;stroke-dasharray:none;stroke-dashoffset:0;stroke-opacity:1;marker:none;enable-background:accumulate"
     id="path967"
     d="m 12.000002,1.5000002 c -5.7924071,0 -10.4979521,4.7055431 -10.4979521,10.4979498 0,5.792409 4.705545,10.497954 10.4979521,10.497953 5.792404,0 10.497955,-4.705544 10.49795,-10.497953 0,-5.7924067 -4.705546,-10.4979498 -10.49795,-10.4979498 z" />
  <path
     d="M 12,1.5 C 6.206462,1.5 1.5,6.206462 1.5,11.999999 1.5,17.793538 6.206462,22.500002 12,22.5 17.793538,22.5 22.500007,17.793538 22.5,11.999999 22.5,6.206462 17.793538,1.5 12,1.5 Z"
     id="path2555-7-1-7"
     style="color:#000000;clip-rule:nonzero;display:inline;overflow:visible;visibility:visible;opacity:0.7;isolation:auto;mix-blend-mode:normal;color-interpolation:sRGB;color-interpolation-filters:linearRGB;solid-color:#000000;solid-opacity:1;fill:none;fill-opacity:0;fill-rule:nonzero;stroke:#000000;stroke-width:1;stroke-linecap:round;stroke-linejoin:round;stroke-miterlimit:4;stroke-dasharray:none;stroke-dashoffset:0;stroke-opacity:1;marker:none;color-rendering:auto;image-rendering:auto;shape-rendering:auto;text-rendering:auto;enable-background:accumulate" />
  <path
     d="m 21.500001,12 c 0,5.246706 -4.253305,9.5 -9.500001,9.5 -5.246695,0 -9.5,-4.253294 -9.5,-9.5 0,-5.246704 4.253305,-9.5 9.5,-9.5 5.246696,0 9.500001,4.253296 9.500001,9.5 z"
     id="path3421"
     style="color:#000000;display:inline;overflow:visible;visibility:visible;opacity:0.3;fill:none;stroke:url(#linearGradient3097);stroke-width:1;stroke-linecap:round;stroke-linejoin:round;stroke-miterlimit:4;stroke-dasharray:none;stroke-dashoffset:0;stroke-opacity:1;marker:none;enable-background:accumulate" />
  <g
     id="g881"
     transform="matrix(0.375,0,0,0.375,-1.4305086e-6,-0.00204868)">
    <circle
       style="opacity:1;fill:url(#radialGradient1043);fill-opacity:1;stroke:none;stroke-width:15.80247019;stroke-linecap:butt;stroke-miterlimit:4;stroke-dasharray:none;stroke-opacity:1;paint-order:normal;font-variant-east_asian:normal;vector-effect:none;stroke-linejoin:miter;stroke-dashoffset:0"
       id="path858"
       cx="32.000004"
       cy="31.999998"
       r="16" />
    <g
       aria-label="8"
       style="font-style:normal;font-weight:normal;font-size:40px;line-height:1.25;font-family:sans-serif;letter-spacing:0px;word-spacing:0px;fill:#273445;fill-opacity:1;stroke:none"
       id="text862" />
  </g>
  <g
     style="opacity:0.7;fill:none;stroke:#000000;stroke-width:2.46153831;stroke-opacity:1"
     transform="matrix(0.40625,0,0,0.40625,-1.0000016,-0.9999992)"
     id="g863">
    <circle
       r="16"
       cy="31.999998"
       cx="32.000004"
       id="circle859"
       style="opacity:1;fill:none;fill-opacity:1;stroke:#000000;stroke-width:2.46153831;stroke-linecap:butt;stroke-miterlimit:4;stroke-dasharray:none;stroke-opacity:1;paint-order:normal" />
    <g
       id="g861"
       style="font-style:normal;font-weight:normal;font-size:40px;line-height:1.25;font-family:sans-serif;letter-spacing:0px;word-spacing:0px;fill:none;fill-opacity:1;stroke:#000000;stroke-width:2.46153831;stroke-opacity:1"
       aria-label="8" />
  </g>
  <g
     id="g921">
    <g
       aria-label="8"
       style="font-style:normal;font-variant:normal;font-weight:normal;font-stretch:normal;font-size:14.22475147px;line-height:1.25;font-family:'Lexend Deca';-inkscape-font-specification:'Lexend Deca';letter-spacing:0px;word-spacing:0px;fill:#000000;fill-opacity:1;stroke:none;stroke-width:0.99999994"
       id="text914">
      <path
         d="m 15.364154,14.110326 q 0,0.796586 -0.455192,1.450925 -0.440967,0.654338 -1.209104,1.052631 -0.753912,0.384069 -1.70697,0.384069 -0.938834,0 -1.70697,-0.384069 -0.7539122,-0.398293 -1.2091042,-1.052631 -0.4409673,-0.654339 -0.4409673,-1.450925 0,-0.938833 0.4694168,-1.522048 0.4836415,-0.59744 1.0953057,-0.924609 Q 9.6742533,11.407623 9.2759603,10.923982 8.8776672,10.44034 8.8776672,9.714878 q 0,-0.7396871 0.4125178,-1.3513514 0.4125178,-0.6258891 1.123755,-0.9957326 0.711238,-0.3698435 1.578948,-0.3698435 0.881934,0 1.578947,0.3698435 0.711238,0.3698435 1.123756,0.9957326 0.412517,0.6116643 0.412517,1.3513514 0,0.526316 -0.213371,0.910384 -0.199146,0.369844 -0.512091,0.625889 -0.312944,0.256046 -0.640114,0.412518 0.725463,0.384068 1.16643,1.038407 0.455192,0.654338 0.455192,1.40825 z M 10.399716,9.7575522 q 0,0.5689898 0.469416,0.9388338 0.469417,0.369843 1.123756,0.369843 0.668563,0 1.123755,-0.369843 0.469417,-0.369844 0.469417,-0.9388338 0,-0.5547653 -0.455192,-0.9388336 -0.440967,-0.398293 -1.13798,-0.398293 -0.697013,0 -1.152205,0.398293 -0.440967,0.3840683 -0.440967,0.9388336 z m 1.593172,5.8179238 q 0.796586,0 1.322902,-0.440968 0.526316,-0.440967 0.526316,-1.081081 0,-0.725462 -0.540541,-1.166429 -0.540541,-0.455192 -1.308677,-0.455192 -0.753912,0 -1.294453,0.455192 -0.54054,0.440967 -0.54054,1.166429 0,0.640114 0.526316,1.081081 0.526315,0.440968 1.308677,0.440968 z"
         style="stroke-width:0.99999994;fill-opacity:1;fill:url(#linearGradient929)"
         id="path916" />
      <path
         id="path935"
         d="M 11.992188 6.9980469 C 11.413714 6.9980469 10.888221 7.1206252 10.414062 7.3671875 C 9.9399044 7.6137498 9.5660275 7.9460219 9.2910156 8.3632812 C 9.0160038 8.7710575 8.8769531 9.221719 8.8769531 9.7148438 C 8.8769531 9.8913082 8.9001977 10.053982 8.9355469 10.208984 C 8.9984721 9.910166 9.113476 9.6265296 9.2910156 9.3632812 C 9.5660275 8.9460218 9.9399044 8.6137498 10.414062 8.3671875 C 10.888221 8.1206252 11.413714 7.9980469 11.992188 7.9980469 C 12.580144 7.9980469 13.10759 8.1206252 13.572266 8.3671875 C 14.046424 8.6137498 14.420301 8.9460218 14.695312 9.3632812 C 14.873963 9.6281775 14.988184 9.9139308 15.050781 10.214844 C 15.088027 10.06013 15.107422 9.8943877 15.107422 9.7148438 C 15.107422 9.221719 14.970324 8.7710574 14.695312 8.3632812 C 14.4203 7.9460219 14.046424 7.6137498 13.572266 7.3671875 C 13.10759 7.1206252 12.580143 6.9980469 11.992188 6.9980469 z M 10.507812 10.25 C 10.435547 10.405395 10.400391 10.574443 10.400391 10.757812 C 10.400391 11.137139 10.556197 11.450703 10.869141 11.697266 C 11.182085 11.943828 11.555961 12.066406 11.992188 12.066406 C 12.437896 12.066406 12.813726 11.943828 13.117188 11.697266 C 13.430132 11.450703 13.585938 11.137139 13.585938 10.757812 C 13.585938 10.576653 13.549372 10.409715 13.476562 10.255859 C 13.398474 10.420632 13.280456 10.56863 13.117188 10.697266 C 12.813726 10.943828 12.437896 11.066406 11.992188 11.066406 C 11.555962 11.066406 11.182085 10.943828 10.869141 10.697266 C 10.704037 10.567183 10.58581 10.417036 10.507812 10.25 z M 9.5175781 12.164062 C 9.3749494 12.294552 9.2344414 12.428571 9.1054688 12.587891 C 8.7925242 12.976701 8.6367188 13.483486 8.6367188 14.109375 C 8.6367188 14.272925 8.6557111 14.431382 8.6835938 14.585938 C 8.7491092 14.196438 8.8859023 13.860685 9.1054688 13.587891 C 9.4278964 13.189597 9.7933957 12.882175 10.201172 12.664062 C 9.9487794 12.541277 9.7258097 12.365356 9.5175781 12.164062 z M 14.453125 12.181641 C 14.428557 12.203839 14.408534 12.230908 14.382812 12.251953 C 14.174183 12.42265 13.960301 12.559748 13.742188 12.664062 C 14.225829 12.920108 14.614225 13.264946 14.908203 13.701172 C 15.110703 13.992265 15.241222 14.300441 15.308594 14.621094 C 15.341937 14.455481 15.363281 14.285407 15.363281 14.109375 C 15.363281 13.606767 15.211664 13.137397 14.908203 12.701172 C 14.777705 12.507529 14.620997 12.339779 14.453125 12.181641 z M 10.25 14.53125 C 10.194288 14.692092 10.158203 14.86257 10.158203 15.052734 C 10.158203 15.479477 10.332716 15.840788 10.683594 16.134766 C 11.03447 16.428744 11.470613 16.576172 11.992188 16.576172 C 12.523245 16.576172 12.965529 16.428744 13.316406 16.134766 C 13.667284 15.840788 13.841797 15.479477 13.841797 15.052734 C 13.841797 14.86257 13.805712 14.692092 13.75 14.53125 C 13.665789 14.755432 13.526933 14.958379 13.316406 15.134766 C 12.965529 15.428744 12.523245 15.576172 11.992188 15.576172 C 11.470613 15.576172 11.03447 15.428744 10.683594 15.134766 C 10.473067 14.958379 10.334211 14.755432 10.25 14.53125 z "
         style="stroke-width:0.99999994;fill-opacity:1.0;fill:#000000" />
    </g>
  </g>
</svg>
