<?xml version="1.0" encoding="UTF-8" standalone="no"?>
<svg
   xmlns:dc="http://purl.org/dc/elements/1.1/"
   xmlns:cc="http://creativecommons.org/ns#"
   xmlns:rdf="http://www.w3.org/1999/02/22-rdf-syntax-ns#"
   xmlns:svg="http://www.w3.org/2000/svg"
   xmlns="http://www.w3.org/2000/svg"
   xmlns:sodipodi="http://sodipodi.sourceforge.net/DTD/sodipodi-0.dtd"
   xmlns:inkscape="http://www.inkscape.org/namespaces/inkscape"
   version="1.1"
   width="16"
   height="16"
   id="svg3862"
   inkscape:version="0.92.3 (2405546, 2018-03-11)"
   sodipodi:docname="symbolic.svg">
  <sodipodi:namedview
     pagecolor="#ffffff"
     bordercolor="#666666"
     borderopacity="1"
     objecttolerance="10"
     gridtolerance="10"
     guidetolerance="10"
     inkscape:pageopacity="0"
     inkscape:pageshadow="2"
     inkscape:window-width="1280"
     inkscape:window-height="1372"
     id="namedview8"
     showgrid="false"
     inkscape:zoom="29.5"
     inkscape:cx="7.8736308"
     inkscape:cy="3.0135294"
     inkscape:window-x="1280"
     inkscape:window-y="32"
     inkscape:window-maximized="0"
     inkscape:current-layer="svg3862" />
  <defs
     id="defs3864" />
  <metadata
     id="metadata3867">
    <rdf:RDF>
      <cc:Work
         rdf:about="">
        <dc:format>image/svg+xml</dc:format>
        <dc:type
           rdf:resource="http://purl.org/dc/dcmitype/StillImage" />
        <dc:title />
      </cc:Work>
    </rdf:RDF>
  </metadata>
  <path
     style="fill:#666666;fill-opacity:1;stroke-width:0.625"
     d="M 8 3 A 5 5 0 0 0 3 8 A 5 5 0 0 0 8 13 A 5 5 0 0 0 13 8 A 5 5 0 0 0 8 3 z M 8.0039062 4.5 C 8.6568043 4.5 9.1821213 4.648798 9.5800781 4.9472656 C 9.9811441 5.2426242 10.181641 5.6428202 10.181641 6.1464844 C 10.181641 6.4946966 10.085338 6.8045297 9.8925781 7.078125 C 9.6998177 7.3486114 9.3899847 7.5921171 8.9609375 7.8066406 C 9.4708199 8.080236 9.8358991 8.3655948 10.056641 8.6640625 C 10.280491 8.9594212 10.392578 9.2842415 10.392578 9.6386719 C 10.392578 10.198299 10.172749 10.650194 9.734375 10.992188 C 9.2960005 11.331074 8.718985 11.5 8.0039062 11.5 C 7.2577371 11.5 6.6720319 11.340559 6.2460938 11.023438 C 5.8201555 10.706315 5.6074219 10.257172 5.6074219 9.6757812 C 5.6074219 9.2871514 5.7108191 8.9422017 5.9160156 8.640625 C 6.1243212 8.3390482 6.457034 8.0738188 6.9140625 7.84375 C 6.5254328 7.598136 6.2452159 7.3345009 6.0742188 7.0546875 C 5.9032217 6.774874 5.8183594 6.4693859 5.8183594 6.1367188 C 5.8183594 5.6485998 6.0196531 5.2547017 6.4238281 4.953125 C 6.8280031 4.6515483 7.3541173 4.5 8.0039062 4.5 z M 7.9960938 5.5546875 C 7.7504798 5.5546875 7.5507804 5.6186232 7.3984375 5.7460938 C 7.2492036 5.8704553 7.1738281 6.0366323 7.1738281 6.2480469 C 7.1738281 6.4345892 7.233419 6.6027193 7.3515625 6.7519531 C 7.472815 6.898078 7.6898934 7.0496263 8.0039062 7.2050781 C 8.308592 7.0620624 8.5232786 6.9148589 8.6445312 6.765625 C 8.7657837 6.6163912 8.8261719 6.4439163 8.8261719 6.2480469 C 8.8261719 6.0335233 8.7472487 5.8645959 8.5917969 5.7402344 C 8.4363449 5.6158728 8.2385988 5.5546875 7.9960938 5.5546875 z M 7.9355469 8.4355469 C 7.2733217 8.7402326 6.9414062 9.1254411 6.9414062 9.5917969 C 6.9414062 9.8591742 7.0341609 10.067563 7.2207031 10.216797 C 7.4072455 10.366031 7.6629881 10.441406 7.9863281 10.441406 C 8.3438676 10.441406 8.6118474 10.365233 8.7890625 10.212891 C 8.9662777 10.057438 9.0546875 9.8533945 9.0546875 9.6015625 C 9.0546875 9.3932569 8.9662777 9.1998555 8.7890625 9.0195312 C 8.6149563 8.8360981 8.3303947 8.6407434 7.9355469 8.4355469 z "
     id="path4145-3" />
  <path
     style="fill:#666666;fill-opacity:1"
     d="M 8 0 C 3.581722 0 0 3.581722 0 8 C 0 12.418278 3.581722 16 8 16 C 12.418278 16 16 12.418278 16 8 C 16 3.581722 12.418278 0 8 0 z M 8 1 C 11.865993 1 15 4.1340067 15 8 C 15 11.865993 11.865993 15 8 15 C 4.1340068 15 1 11.865993 1 8 C 1 4.1340067 4.1340068 1 8 1 z "
     id="path4145" />
</svg>
