<?xml version="1.0" encoding="UTF-8" standalone="no"?>
<svg
   xmlns:dc="http://purl.org/dc/elements/1.1/"
   xmlns:cc="http://creativecommons.org/ns#"
   xmlns:rdf="http://www.w3.org/1999/02/22-rdf-syntax-ns#"
   xmlns:svg="http://www.w3.org/2000/svg"
   xmlns="http://www.w3.org/2000/svg"
   id="svg3862"
   height="16"
   width="16"
   version="1.1">
  <defs
     id="defs3864" />
  <metadata
     id="metadata3867">
    <rdf:RDF>
      <cc:Work
         rdf:about="">
        <dc:format>image/svg+xml</dc:format>
        <dc:type
           rdf:resource="http://purl.org/dc/dcmitype/StillImage" />
        <dc:title />
      </cc:Work>
    </rdf:RDF>
  </metadata>
  <path
     id="path4145-3"
     d="M 8 0 C 3.581722 0 0 3.581722 0 8 C 0 12.418278 3.581722 16 8 16 C 12.418278 16 16 12.418278 16 8 C 16 3.581722 12.418278 0 8 0 z M 8 1 C 11.865993 1 15 4.1340067 15 8 C 15 11.865993 11.865993 15 8 15 C 4.1340068 15 1 11.865993 1 8 C 1 4.1340067 4.1340068 1 8 1 z M 8 3 C 5.2385763 3 3 5.2385763 3 8 C 3 10.761424 5.2385763 13 8 13 C 10.761424 13 13 10.761424 13 8 C 13 5.2385763 10.761424 3 8 3 z M 7.9941406 4 C 8.4645058 4 8.8860724 4.097672 9.2578125 4.2949219 C 9.6371392 4.4921718 9.9362408 4.7579894 10.15625 5.0917969 C 10.37626 5.4180178 10.486328 5.7793283 10.486328 6.1738281 C 10.486328 6.4545299 10.430204 6.6975074 10.316406 6.9023438 C 10.210194 7.0995936 10.073153 7.2657862 9.90625 7.4023438 C 9.7393463 7.5389014 9.5690216 7.64897 9.3945312 7.7324219 C 9.7814445 7.9372583 10.092943 8.2135195 10.328125 8.5625 C 10.570894 8.9114806 10.691406 9.2873669 10.691406 9.6894531 C 10.691406 10.114299 10.570894 10.502583 10.328125 10.851562 C 10.092943 11.200544 9.7690479 11.480937 9.359375 11.693359 C 8.9572887 11.898196 8.5024384 12 7.9941406 12 C 7.4934294 12 7.0385791 11.898196 6.6289062 11.693359 C 6.22682 11.480937 5.9048784 11.200544 5.6621094 10.851562 C 5.4269268 10.502583 5.3085937 10.114299 5.3085938 9.6894531 C 5.3085938 9.1887419 5.433238 8.7837043 5.6835938 8.4726562 C 5.9415359 8.154022 6.2343259 7.9069121 6.5605469 7.7324219 C 6.2798451 7.5958643 6.0327354 7.3985672 5.8203125 7.140625 C 5.6078896 6.8826829 5.5019531 6.5607413 5.5019531 6.1738281 C 5.5019531 5.7793283 5.6120218 5.4180178 5.8320312 5.0917969 C 6.0520407 4.7579894 6.351142 4.4921718 6.7304688 4.2949219 C 7.1097954 4.097672 7.5313621 4 7.9941406 4 z M 7.9941406 5.1386719 C 7.6224005 5.1386719 7.3150347 5.2446083 7.0722656 5.4570312 C 6.8370831 5.6618677 6.7207031 5.9111565 6.7207031 6.2070312 C 6.7207031 6.5104926 6.8453475 6.7617345 7.0957031 6.9589844 C 7.3460587 7.1562342 7.6451601 7.2539063 7.9941406 7.2539062 C 8.3507078 7.2539062 8.6498091 7.1562342 8.8925781 6.9589844 C 9.1429337 6.7617345 9.2695313 6.5104927 9.2695312 6.2070312 C 9.2695314 5.9111565 9.1470659 5.6618676 8.9042969 5.4570312 C 8.6691143 5.2446084 8.3658808 5.1386719 7.9941406 5.1386719 z M 7.9941406 8.3476562 C 7.5920544 8.3476562 7.2472726 8.4681684 6.9589844 8.7109375 C 6.670696 8.9461201 6.5253906 9.2576181 6.5253906 9.6445312 C 6.5253906 9.9859253 6.6665638 10.274583 6.9472656 10.509766 C 7.2279674 10.744948 7.5768813 10.861328 7.9941406 10.861328 C 8.4189866 10.861328 8.7720326 10.744948 9.0527344 10.509766 C 9.3334361 10.274583 9.4746094 9.9859253 9.4746094 9.6445312 C 9.4746094 9.2576182 9.3293039 8.9461201 9.0410156 8.7109375 C 8.7527274 8.4681684 8.4038135 8.3476562 7.9941406 8.3476562 z "
     style="fill:#666666;fill-opacity:1;stroke-width:0.625" />
</svg>
